# xmcd
#
# Track frame offsets: 
#        150
#        15676
#        31718
#        50283
#        68809
#        86323
#        104323
#        120374
#        140926
#        158533
#        175756
#        197994
#
# Disc length: 2969 seconds
#
# Revision: 1
# Processed by: cddbd v1.5.2PL0 Copyright (c) Steve Scherf et al.
# Submitted via: ExactAudioCopyFreeDBPlugin 1.0
#
DISCID=920b970c
DTITLE=Paradise - Love Is The Answer
DYEAR=1983
DGENRE=Funk
TTITLE0=One Mind Two Hearts
TTITLE1=With You
TTITLE2=Just Can't Stop
TTITLE3=Satisfied
TTITLE4=Don't Give Up Now
TTITLE5=Love Is The Answer
TTITLE6=Can't Say No
TTITLE7=New World
TTITLE8=Open-Minded
TTITLE9=You Make Life So Sweet
TTITLE10=One Mind Two Hearts (Extended Version)
TTITLE11=Back Together
EXTD=
EXTT0=
EXTT1=
EXTT2=
EXTT3=
EXTT4=
EXTT5=
EXTT6=
EXTT7=
EXTT8=
EXTT9=
EXTT10=
EXTT11=
PLAYORDER=
